OpenSim_Sub08_CSBaseline_GRF.mot
version=1
nRows=52
nColumns=19
inDegrees=no
endheader
time	lFx	lFy	lFz	lCOPx	lCOPy	lCOPz	rFx	rFy	rFz	rCOPx	rCOPy	rCOPz	lMx	lMy	lMz	rMx	rMy	rMz
13.65000000	29.64314460	500.51250091	33.12681609	0.55959756	0	-0.60702802	-0.13597885	0.52427655	0.06306945	0.00020516	0	-0.00009037	0	5.91916639	0	0	-0.00009227	-0.00000000
13.66000000	31.85969576	493.42217138	32.05979364	0.55430024	0	-0.60654660	-0.08740089	0.61830790	0.07145535	0.00062416	0	-0.00029592	0	6.19400710	0	0	-0.00001465	0.00000000
13.67000000	34.07248010	485.10522661	30.86238462	0.54916731	0	-0.60605124	-0.06514325	0.75580933	0.05476304	0.00113129	0	-0.00056248	0	6.42461332	0	0	0.00030505	-0.00000000
13.68000000	36.34763108	475.10035932	29.42961354	0.54420370	0	-0.60548962	-0.09807921	0.86959023	0.01531826	0.00109371	0	-0.00059848	0	6.59651558	0	0	0.00098868	0.00000000
13.69000000	38.64780687	463.04935393	27.69396013	0.53907707	0	-0.60484453	-0.21071087	0.81180176	-0.04910996	-0.00094420	0	0.00030221	0	6.74421246	0	0	0.00186752	0.00000000
13.70000000	40.83871321	448.63182651	25.60421136	0.53344203	0	-0.60411276	-0.44631006	0.46103041	-0.21193580	-0.00703539	0	0.00319378	0	6.97193891	0	0	0.00196352	0.00000000
13.71000000	42.74416645	431.73753875	23.28247257	0.52750909	0	-0.60338591	-0.76173551	-0.23935950	-0.37704484	-0.01794001	0	0.00862337	0	7.25329904	0	0	-0.00107527	-0.00000000
13.72000000	44.29039445	412.00344862	20.92454592	0.52147242	0	-0.60273510	-0.79118888	-0.90150591	-0.48435102	-0.02819866	0	0.01426729	0	7.42277840	0	0	-0.01073455	-0.00000000
13.73000000	45.26982261	388.80554516	18.48467472	0.51545317	0	-0.60211874	0.40153332	-0.35003390	-0.43407351	-0.01822945	0	0.01094289	0	7.44911761	0	0	-0.02875820	0.00000000
13.74000000	45.33889019	361.63791442	15.83473125	0.50969660	0	-0.60135374	4.17876742	3.78529169	0.17877767	0.05116458	0	-0.02062709	0	7.33379164	0	0	-0.04726325	0.00000000
13.75000000	44.09302324	330.48577377	13.02294345	0.50478248	0	-0.60031716	11.14408479	14.22965862	1.72097316	0.22562933	0	-0.10458957	0	7.05866582	0	0	-0.03552414	-0.00000000
13.76000000	41.30280425	295.69312661	10.24384418	0.50079844	0	-0.59913918	18.51289030	31.15579302	3.91914948	0.49719783	0	-0.24201398	0	6.60663192	0	0	0.06987724	-0.00000000
13.77000000	37.05393177	257.91623280	7.76586891	0.49741461	0	-0.59833073	21.03723269	51.67166341	5.90424081	0.73927531	0	-0.37229623	0	5.98300824	0	0	0.21250351	0
13.78000000	31.56469612	218.40551919	5.85484958	0.49477672	0	-0.59892705	17.23120831	73.41817072	7.50794516	0.86646912	0	-0.44469840	0	5.17303745	0	0	0.17159083	0
13.79000000	24.97391436	179.02158155	4.71368081	0.49367772	0	-0.60213595	9.97709347	98.19574642	9.21917440	0.90864511	0	-0.46871917	0	4.16311391	0	0	-0.09518809	0.00000000
13.80000000	17.49410866	141.90332564	4.39205428	0.49483561	0	-0.60844812	1.71981710	130.01417214	11.39164567	0.91109445	0	-0.46847856	0	2.96803621	0	0	-0.51204709	-0.00000000
13.81000000	9.86978136	108.87247387	4.61290843	0.49718729	0	-0.61565017	-6.53897581	170.10104355	13.26476212	0.90105566	0	-0.46110105	0	1.71327523	0	0	-0.91334690	0
13.82000000	3.15381202	80.96032460	4.88317006	0.49499285	0	-0.61464190	-14.20508215	214.45418767	13.16191250	0.89090289	0	-0.45435143	0	0.64080217	0	0	-1.12834445	-0.00000000
13.83000000	-2.08043883	58.53973861	4.83222350	0.47372973	0	-0.58443008	-21.11401320	256.30856648	9.46367642	0.88406653	0	-0.44989536	0	-0.06022711	0	0	-1.13790518	0
13.84000000	-5.63779386	40.94186615	4.33252451	0.40893508	0	-0.49356358	-27.17511902	290.54356803	2.00818681	0.87983851	0	-0.44707873	0	-0.30608579	0	0	-1.05846930	-0.00000000
13.85000000	-7.45965548	27.11270656	3.44564175	0.28252515	0	-0.32776568	-32.17407876	316.25886648	-7.77484938	0.87645547	0	-0.44493867	0	-0.29498265	0	0	-0.99881403	0
13.86000000	-7.61417096	16.12419879	2.20716935	0.13686901	0	-0.14977653	-36.30596934	335.59348083	-18.21190864	0.87329956	0	-0.44307153	0	-0.14912849	0	0	-0.97519596	0
13.87000000	-6.26411189	7.55941547	0.68967347	0.03693781	0	-0.03524350	-39.73700553	351.87039976	-27.58114436	0.87036272	0	-0.44141367	0	-0.03779961	0	0	-1.01345383	0
13.88000000	-4.27981307	1.89620131	-0.72976712	-0.00629801	0	0.01106878	-42.69083305	368.61546534	-34.83221290	0.86757142	0	-0.44002598	0	0.00883590	0	0	-1.10386663	0
13.89000000	-2.90342900	-0.45910271	-1.50130345	-0.01482181	0	0.01822351	-45.19807027	387.72238292	-39.36933640	0.86450266	0	-0.43913388	0	0.01709637	0	0	-1.17622664	0
13.90000000	-2.31735403	-0.77440492	-1.64827449	-0.01029565	0	0.01178160	-47.04278987	409.11840197	-40.73836504	0.86075845	0	-0.43885666	0	0.01146121	0	0	-1.26721070	0
13.91000000	-2.22556640	-0.40013738	-1.65721629	-0.00439654	0	0.00469814	-48.31901306	431.78669111	-39.34494531	0.85604202	0	-0.43912150	0	0.00473694	0	0	-1.40626279	0
13.92000000	-2.32093022	-0.02383069	-1.49294452	-0.00083145	0	0.00068287	-49.13555129	454.63484933	-36.92178071	0.85034715	0	-0.43968635	0	0.00079866	0	0	-1.55605024	0
13.93000000	-2.42130151	0.20779070	-1.39840399	0.00048874	0	-0.00068814	-49.43357487	476.67685258	-35.44469257	0.84412642	0	-0.44025083	0	-0.00060496	0	0	-1.70488601	0
13.94000000	-2.50336860	0.27835799	-1.33247076	0.00061353	0	-0.00073520	-48.98392773	496.52038830	-36.01698587	0.83770952	0	-0.44062076	0	-0.00069864	0	0	-1.86185363	0
13.95000000	-2.57581967	0.20912174	-1.24771594	0.00036604	0	-0.00041160	-47.86183607	512.78435097	-38.80214875	0.83118724	0	-0.44079194	0	-0.00040404	0	0	-1.96545008	-0.00000000
13.96000000	-2.62759417	0.12296737	-1.19292918	0.00013348	0	-0.00013814	-46.27533259	525.17647030	-43.03680701	0.82454893	0	-0.44086557	0	-0.00014169	0	0	-2.03725119	0
13.97000000	-2.63755476	0.12129345	-1.14193302	0.00001114	0	-0.00000289	-44.36196361	534.61826300	-47.47525834	0.81772217	0	-0.44094664	0	-0.00000774	0	0	-2.12681816	0
13.98000000	-2.60469305	0.18984257	-1.14746302	-0.00002621	0	0.00003410	-42.12626523	542.27480099	-50.94299499	0.81045445	0	-0.44114108	0	0.00003112	0	0	-2.19330521	0
13.99000000	-2.55535895	0.26186863	-1.11156490	-0.00002408	0	0.00002827	-39.68602799	548.89799859	-52.63749771	0.80299987	0	-0.44148229	0	0.00002716	0	0	-2.19751894	0
14	-2.50530977	0.22061325	-1.06005700	-0.00001251	0	0.00001381	-37.16859725	554.35343508	-52.27839871	0.79573185	0	-0.44192580	0	0.00001371	0	0	-2.20313324	0
14.01000000	-2.46821944	0.06662171	-1.01743413	-0.00000374	0	0.00000369	-34.53223970	557.72225396	-50.21926863	0.78882637	0	-0.44245289	0	0.00000390	0	0	-2.20343374	0
14.02000000	-2.43501847	-0.08636260	-0.98145445	0.00000027	0	-0.00000066	-31.78380537	557.91547612	-47.21624755	0.78215506	0	-0.44300006	0	-0.00000050	0	0	-2.16286600	0.00000000
14.03000000	-2.38340539	-0.13376530	-0.94254271	0.00000117	0	-0.00000148	-28.84574201	554.15024715	-44.06892844	0.77542814	0	-0.44353839	0	-0.00000152	0	0	-2.13184068	0
14.04000000	-2.32029118	-0.05492822	-0.89921642	0.00000082	0	-0.00000098	-25.76227754	546.53693219	-41.57178760	0.76846223	0	-0.44407859	0	-0.00000127	0	0	-2.08981516	0
14.05000000	-2.26318834	0.03290888	-0.87477323	0.00000032	0	-0.00000037	-22.61537366	536.00946934	-40.10870610	0.76132192	0	-0.44458566	0	-0.00000083	0	0	-1.99112943	-0.00000000
14.06000000	-2.22408936	0.07026436	-0.81877297	0.00000012	0	-0.00000009	-19.56963852	523.90567689	-39.55847093	0.75422417	0	-0.44499079	0	-0.00000027	0	0	-1.86963665	0.00000000
14.07000000	-2.20426970	0.09511388	-0.73733623	0.00000040	0	-0.00000026	-16.66088583	511.36832284	-39.56416254	0.74698945	0	-0.44531703	0	0.00000096	0	0	-1.70109634	0
14.08000000	-2.18560004	0.12710717	-0.64090828	0.00000118	0	-0.00000084	-14.01205717	499.47335207	-39.73153632	0.73984738	0	-0.44557866	0	0.00000354	0	0	-1.45227125	0
14.09000000	-2.16703162	0.23015792	-0.54696451	0.00000210	0	-0.00000157	-11.73964617	489.03967219	-39.61389910	0.73286198	0	-0.44580372	0	0.00000720	0	0	-1.18638382	0
14.10000000	-2.15012873	0.34056357	-0.49020908	0.00000183	0	-0.00000146	-9.79978844	480.59281148	-39.00875311	0.72603619	0	-0.44601470	0	0.00000873	0	0	-0.93078564	-0.00000000
14.11000000	-2.16225970	0.36436450	-0.44070889	-0.00000246	0	0.00000159	-7.98628562	474.12213155	-37.98243579	0.71902851	0	-0.44628168	0	-0.00000050	0	0	-0.60033836	0
14.12000000	-2.21908300	0.30400366	-0.38520703	-0.00001451	0	0.00001043	-6.15233182	469.56262750	-36.73308453	0.71174239	0	-0.44664068	0	-0.00003459	0	0	-0.23475768	0
14.13000000	-2.29448516	0.17942418	-0.35193939	-0.00003504	0	0.00002589	-4.24578046	466.88051940	-35.58634757	0.70434052	0	-0.44710412	0	-0.00010390	0	0	0.12061195	0.00000000
14.14000000	-2.35995155	0.06278371	-0.33506429	-0.00005219	0	0.00003962	-2.20996438	466.09022440	-34.69054298	0.69702360	0	-0.44760205	0	-0.00018667	0	0	0.46864226	0.00000000
14.15000000	-2.41364136	0.02266457	-0.32910294	-0.00002675	0	0.00002302	-0.04814593	467.31273662	-34.02460196	0.68990279	0	-0.44800924	0	-0.00017703	0	0	0.79884770	0.00000000
14.16000000	-2.49216137	0.01941087	-0.37194975	0.00011607	0	-0.00007981	2.24406857	470.42404362	-33.65817175	0.68291722	0	-0.44829977	0	0.00016633	0	0	1.07880861	0
